<svg width="16" height="16" viewBox="0 0 16 16" fill="none" xmlns="http://www.w3.org/2000/svg">
<path d="M4.55133 4.11668C4.43133 4.30662 4.27121 4.468 4.08222 4.5895C3.89324 4.711 3.67995 4.78968 3.45733 4.82001C3.204 4.85601 2.95267 4.89468 2.70133 4.93668C1.99933 5.05335 1.5 5.67135 1.5 6.38268V12C1.5 12.3978 1.65804 12.7794 1.93934 13.0607C2.22064 13.342 2.60218 13.5 3 13.5H13C13.3978 13.5 13.7794 13.342 14.0607 13.0607C14.342 12.7794 14.5 12.3978 14.5 12V6.38268C14.5 5.67135 14 5.05335 13.2987 4.93668C13.0471 4.89477 12.7951 4.85588 12.5427 4.82001C12.3202 4.78959 12.107 4.71087 11.9181 4.58937C11.7293 4.46788 11.5693 4.30654 11.4493 4.11668L10.9013 3.23935C10.7783 3.03941 10.6088 2.87208 10.4074 2.75151C10.2059 2.63093 9.97836 2.56068 9.744 2.54668C8.58217 2.48428 7.41783 2.48428 6.256 2.54668C6.02164 2.56068 5.7941 2.63093 5.59264 2.75151C5.39118 2.87208 5.22174 3.03941 5.09867 3.23935L4.55133 4.11668Z" stroke="#999999" stroke-linecap="round" stroke-linejoin="round"/>
<path d="M11 8.5C11 9.29565 10.6839 10.0587 10.1213 10.6213C9.55871 11.1839 8.79565 11.5 8 11.5C7.20435 11.5 6.44129 11.1839 5.87868 10.6213C5.31607 10.0587 5 9.29565 5 8.5C5 7.70435 5.31607 6.94129 5.87868 6.37868C6.44129 5.81607 7.20435 5.5 8 5.5C8.79565 5.5 9.55871 5.81607 10.1213 6.37868C10.6839 6.94129 11 7.70435 11 8.5ZM12.5 7H12.5053V7.00533H12.5V7Z" stroke="#999999" stroke-linecap="round" stroke-linejoin="round"/>
</svg>
