<svg width="80" height="80" viewBox="0 0 80 80" fill="none" xmlns="http://www.w3.org/2000/svg">
<circle cx="40" cy="40" r="40" fill="#A6B7F0" fill-opacity="0.38"/>
<path d="M52.438 29.8508C52.438 31.2246 51.3242 32.3384 49.9504 32.3384C48.5765 32.3384 47.4629 31.2246 47.4629 29.8508C47.4629 28.4769 48.5765 27.3632 49.9504 27.3632C51.3242 27.3632 52.438 28.4769 52.438 29.8508ZM46.9652 20C39.7727 20 33.9304 25.8424 33.9304 33.0348C33.9304 33.8054 34.0302 34.548 34.1502 35.2319C34.1856 35.4338 34.1208 35.6093 34.0124 35.7177L21.6029 48.1272C20.5766 49.1535 20 50.5455 20 51.9969V56.3185C20 58.2418 21.5592 59.801 23.4826 59.801H28.4577C30.3811 59.801 31.9403 58.2418 31.9403 56.3185V53.8309H35.4229C36.7968 53.8309 37.9104 52.7173 37.9104 51.3433V47.8607H41.393C42.7361 47.8607 43.8306 46.7964 43.879 45.4651C44.8674 45.7194 45.9098 45.8707 46.9652 45.8707C54.1576 45.8707 60 40.0283 60 32.8358C60 25.6097 54.1236 20 46.9652 20ZM36.9154 33.0348C36.9154 27.491 41.4213 22.9851 46.9652 22.9851C52.5431 22.9851 57.0149 27.3257 57.0149 32.8358C57.0149 38.3797 52.509 42.8856 46.9652 42.8856C45.6133 42.8856 44.2217 42.5451 42.9761 42.0112C42.5148 41.8136 41.9853 41.8609 41.5665 42.1371C41.1476 42.4134 40.8955 42.8814 40.8955 43.3831V44.8757H37.4129C36.0392 44.8757 34.9254 45.9893 34.9254 47.3632V50.8458H31.4428C30.0689 50.8458 28.9552 51.9594 28.9552 53.3334V56.3185C28.9552 56.5933 28.7325 56.816 28.4577 56.816H23.4826C23.2078 56.816 22.9851 56.5933 22.9851 56.3185V51.9969C22.9851 51.3372 23.2471 50.7045 23.7137 50.2379L36.1232 37.8285C36.9558 36.9958 37.285 35.8249 37.0903 34.7161C36.9835 34.1072 36.9154 33.557 36.9154 33.0348Z" fill="#6370E5" stroke="#8B9ACF"/>
</svg>
