<svg width="80" height="80" viewBox="0 0 80 80" fill="none" xmlns="http://www.w3.org/2000/svg">
<circle cx="40" cy="40" r="40" fill="#A6B7F0" fill-opacity="0.38"/>
<path d="M49 37.0769V29.7692C49 27.4435 48.0518 25.213 46.364 23.5684C44.6761 21.9239 42.3869 21 40 21C37.6131 21 35.3239 21.9239 33.636 23.5684C31.9482 25.213 31 27.4435 31 29.7692V37.0769M29.5 59H50.5C51.6935 59 52.8381 58.5381 53.682 57.7158C54.5259 56.8935 55 55.7783 55 54.6154V41.4615C55 40.2987 54.5259 39.1834 53.682 38.3611C52.8381 37.5389 51.6935 37.0769 50.5 37.0769H29.5C28.3065 37.0769 27.1619 37.5389 26.318 38.3611C25.4741 39.1834 25 40.2987 25 41.4615V54.6154C25 55.7783 25.4741 56.8935 26.318 57.7158C27.1619 58.5381 28.3065 59 29.5 59Z" stroke="#6370E5" stroke-width="3" stroke-linecap="round" stroke-linejoin="round"/>
</svg>
