<svg width="50" height="50" viewBox="0 0 50 50" fill="none" xmlns="http://www.w3.org/2000/svg">
<circle cx="25" cy="25" r="25" fill="#6E71EE"/>
<path d="M23.3497 12.429V24.4384C23.3497 25.4827 22.9146 25.5697 22.5665 25.4827C19.9557 25.2216 17.2579 26.614 16.3007 27.5713C15.6045 28.1805 14.1599 30.0776 13.951 32.7928C13.7422 35.5079 15.0824 37.5791 15.7786 38.2753C16.0396 38.6234 16.9273 39.4763 18.3893 40.1029C20.2168 40.8861 22.8276 40.625 24.6551 40.3639C26.1171 40.1551 26.4826 39.0586 26.4826 38.5364V33.3149C26.4826 32.2706 24.7421 32.1836 24.1329 32.2706C22.8798 32.4795 22.5665 33.4019 22.5665 33.8371V36.4478C22.3576 36.8655 22.1314 36.97 22.0444 36.97C21.4178 37.1788 20.3909 36.7089 19.9557 36.4478C19.3466 36.0127 18.1804 34.5681 18.3893 32.2706C18.5982 29.9732 20.5649 29.2248 21.5222 29.1377H26.2215C27.057 28.9289 27.2658 28.3545 27.2658 28.0934V22.6109C27.2658 22.1932 27.6139 22.0887 27.788 22.0887H33.5316C34.0538 22.0887 35.0981 21.7232 35.0981 20.2612C35.0981 18.7992 34.0538 18.2596 33.5316 18.1726H27.788C27.3703 18.1726 27.2658 17.9986 27.2658 17.9115V15.0397C27.2658 14.4131 27.6139 14.2565 27.788 14.2565H34.0538C34.8892 14.0476 35.2721 13.2992 35.3591 12.9511C35.7769 11.0714 34.3148 10.6014 33.5316 10.6014H25.6994C23.8196 10.3926 23.3497 11.7328 23.3497 12.429Z" fill="#F1F1F1"/>
</svg>
