<svg width="64" height="64" viewBox="0 0 64 64" fill="none" xmlns="http://www.w3.org/2000/svg">
<circle cx="32" cy="32" r="32" fill="white"/>
<path d="M29.8874 15.9091V31.2811C29.8873 32.6178 29.3304 32.7292 28.8848 32.6178C25.543 32.2837 22.0899 34.0659 20.8646 35.2912C19.9735 36.071 18.1244 38.4993 17.8571 41.9747C17.5897 45.4502 19.3052 48.1013 20.1963 48.9924C20.5305 49.438 21.6667 50.5296 23.538 51.3316C25.8773 52.3342 29.219 52 31.5582 51.6658C33.4296 51.3985 33.8975 49.9949 33.8975 49.3266V42.6431C33.8974 41.3064 31.6696 41.195 30.8899 41.3064C29.2859 41.5737 28.8848 42.7545 28.8848 43.3114V46.6532C28.6175 47.1879 28.3279 47.3215 28.2165 47.3215C27.4145 47.5889 26.1 46.9874 25.5431 46.6532C24.7633 46.0962 23.2707 44.2471 23.538 41.3064C23.8054 38.3657 26.3228 37.4077 27.5481 37.2963H33.5633C34.6326 37.029 34.9 36.2938 34.9 35.9596V28.9419C34.9 28.4072 35.3455 28.2736 35.5683 28.2736H42.9202C43.5885 28.2736 44.9252 27.8057 44.9252 25.9343C44.9252 24.063 43.5885 23.3723 42.9202 23.2609H35.5683C35.0337 23.2609 34.9 23.0382 34.9 22.9268V19.2508C34.9 18.4488 35.3455 18.2483 35.5683 18.2483H43.5885C44.6579 17.981 45.148 17.023 45.2594 16.5774C45.7941 14.1714 43.9227 13.5698 42.9202 13.5698H32.8949C30.4889 13.3025 29.8874 15.0179 29.8874 15.9091Z" fill="#6E71EE"/>
</svg>
